<?xml version="1.0" encoding="UTF-8"?>
<svg id="_图层_1" data-name="图层 1" xmlns="http://www.w3.org/2000/svg" viewBox="0 0 480 420">
  <defs>
    <style>
      .cls-1 {
        fill: #ff9045;
      }

      .cls-2 {
        fill: #0079dd;
      }
    </style>
  </defs>
  <g>
    <circle class="cls-1" cx="240" cy="94.5" r="27.21"/>
    <path class="cls-1" d="M257.97,137.7h-36.11c-9.1,0-16.48,7.38-16.48,16.48v184.01c0,8.02,6.5,14.52,14.52,14.52h.14c8.02,0,14.52-6.5,14.52-14.52v-107.89c5.91,0,10.7,4.79,10.7,10.7v32.75c0,8.02,6.5,14.52,14.52,14.52h.14c8.02,0,14.52-6.5,14.52-14.52v-42.24s0-77.34,0-77.34c0-9.1-7.38-16.48-16.48-16.48Z"/>
  </g>
  <path class="cls-2" d="M183.93,221.1h-3.95c-6.13,0-11.1-4.97-11.1-11.1s4.97-11.1,11.1-11.1h3.95s.08,0,.13,0v-51.31c0-9.51-4.63-18.43-12.4-23.92L51.43,38.95c-9.69-6.83-23.06,.1-23.06,11.96V369.09c0,11.86,13.37,18.79,23.06,11.96l120.22-84.73c7.78-5.48,12.4-14.4,12.4-23.92v-51.31s-.08,0-.13,0Z"/>
  <path class="cls-2" d="M428.57,38.95l-120.22,84.73c-7.78,5.48-12.4,14.4-12.4,23.92v51.31s.08,0,.13,0h3.95c6.13,0,11.1,4.97,11.1,11.1s-4.97,11.1-11.1,11.1h-3.95s-.08,0-.13,0v51.31c0,9.51,4.63,18.44,12.4,23.92l120.22,84.73c9.69,6.83,23.06-.1,23.06-11.96V50.91c0-11.86-13.37-18.79-23.06-11.96Z"/>
</svg>