<?xml version="1.0" encoding="UTF-8"?>
<svg id="_图层_1" data-name="图层 1" xmlns="http://www.w3.org/2000/svg" viewBox="0 0 480 480">
  <defs>
    <style>
      .cls-1 {
        fill: #ff9045;
      }

      .cls-2 {
        fill: #333;
      }

      .cls-3 {
        fill: #0079dd;
      }

      .cls-4 {
        fill: #595959;
      }
    </style>
  </defs>
  <g>
    <circle class="cls-1" cx="243.67" cy="69.33" r="17.83"/>
    <path class="cls-1" d="M255.44,97.63h-23.66c-5.96,0-10.79,4.83-10.79,10.79v120.54c0,5.25,4.26,9.51,9.51,9.51h.09c5.25,0,9.51-4.26,9.51-9.51v-70.67c3.87,0,7.01,3.14,7.01,7.01v21.45c0,5.25,4.26,9.51,9.51,9.51h.09c5.25,0,9.51-4.26,9.51-9.51v-27.67s0-50.66,0-50.66c0-5.96-4.83-10.79-10.79-10.79Z"/>
  </g>
  <path class="cls-3" d="M206.94,152.26h-2.59c-4.01,0-7.27-3.25-7.27-7.27s3.25-7.27,7.27-7.27h2.59s.05,0,.08,0v-33.61c0-6.23-3.03-12.08-8.12-15.67L120.15,32.94c-6.35-4.47-15.1,.07-15.1,7.83V249.2c0,7.77,8.76,12.31,15.1,7.83l78.75-55.5c5.09-3.59,8.12-9.43,8.12-15.67v-33.61s-.05,0-.08,0Z"/>
  <path class="cls-3" d="M367.19,32.94l-78.75,55.5c-5.09,3.59-8.12,9.43-8.12,15.67v33.61s.05,0,.08,0h2.59c4.01,0,7.27,3.25,7.27,7.27s-3.25,7.27-7.27,7.27h-2.59s-.05,0-.08,0v33.61c0,6.23,3.03,12.08,8.12,15.67l78.75,55.5c6.35,4.47,15.1-.07,15.1-7.83V40.77c0-7.77-8.75-12.31-15.1-7.83Z"/>
  <g>
    <path class="cls-2" d="M52.96,324.39v-7.48h7.98v7.48h20.43c4.33,0,7.66,.86,9.98,2.59,3,2.26,4.5,5.35,4.5,9.26l-.04,31.9c0,3.79-.76,6.7-2.29,8.71-2.38,3.14-5.9,4.71-10.58,4.71h-22l.05,7.39-8.03-.04v-7.35h-20.18c-4.08,0-7.11-.58-9.09-1.74-3.6-2.1-5.39-6.07-5.39-11.93v-30.03c0-4.36,1.1-7.63,3.31-9.81,2.47-2.44,5.79-3.65,9.98-3.65h21.36Zm0,49.18v-41.2H31.35c-2.01,0-3.41,.54-4.21,1.61-.56,.79-.85,2.04-.85,3.74v29.52c0,1.93,.07,3.07,.21,3.44,.71,1.95,2.26,2.93,4.67,2.93l21.79-.04Zm7.98,0l20.56,.04c4.25,.03,6.37-1.76,6.37-5.35v-29.94c0-2.44-.48-4.03-1.44-4.8-.91-.71-2.44-1.07-4.59-1.1l-20.9-.09v41.24Z"/>
    <path class="cls-2" d="M109.04,339v-8.62c2.09-1.7,3.55-3.28,4.37-4.76,1.1-1.9,1.97-4.86,2.59-8.88h7.98c-.45,2.15-.78,3.77-.98,4.84-.79,4.05-2.08,7.33-3.86,9.85-1.84,2.58-4.01,4.56-6.5,5.95-.79,.42-2,.96-3.61,1.61Zm0,20.3v-8.71c2.32-1.87,3.83-3.5,4.54-4.88,.88-1.64,1.67-4.55,2.38-8.71h8.02l-.89,4.08v47.99h-7.94v-33.17c-1.9,1.42-3.94,2.55-6.11,3.4Zm16.95,29.77v-8.32c1.33-.76,2-1.87,2-3.31v-10.41c0-2.55,.86-4.7,2.59-6.46,1.56-1.56,4.45-2.34,8.66-2.34h6.75c6.6,0,9.9,3.13,9.9,9.39v8.71c0,1.7,.23,2.82,.68,3.35,.26,.31,.71,.67,1.36,1.06v8.32c-2.83-.42-5.07-1.27-6.71-2.55-.85-.65-1.56-1.53-2.12-2.63-.79-1.5-1.19-3.02-1.19-4.55v-9.77c0-2.35-1.44-3.53-4.33-3.53h-3.44c-1.45,0-2.47,.31-3.06,.94-.79,.79-1.19,2.01-1.19,3.65v8.71c0,2.75-.86,4.98-2.59,6.71-1.36,1.39-3.79,2.39-7.3,3.02Zm.89-72.37h7.09v15.25c0,1.19,.23,1.98,.68,2.38,.51,.42,1.39,.64,2.63,.64h1.06v-18.26h7.6v18.26h1.1c1.05,0,1.81-.28,2.3-.85,.48-.57,.72-1.15,.72-1.74v-15.67h6.92v17.67c0,3.03-1.09,5.25-3.27,6.67-1.19,.76-3.31,1.15-6.37,1.15h-11.47c-3.14,0-5.49-.79-7.05-2.38-.68-.71-1.12-1.34-1.32-1.91-.42-1.19-.64-2.96-.64-5.31v-15.88Zm0,37.5v-7.09h30.11v7.09h-30.11Zm32.53,34.49v-7.6c2.32-.91,4.01-1.68,5.06-2.34,1.07-.68,2.57-1.88,4.5-3.61-1.98-3.77-3.33-7.04-4.03-9.81-.88-3.28-1.32-6.64-1.32-10.07v-14.61c-1.1,.74-2.41,1.35-3.91,1.83v-8.24c1.36-1.5,2.31-3.5,2.85-5.99,.62-3.03,1.06-6.88,1.32-11.55h7.14v4.8h16.77v7.86h-4.12v26.97c0,5.95-1.8,12.22-5.39,18.81,1.42,1.36,2.56,2.36,3.44,3.02,1.24,.88,3.27,1.85,6.07,2.93v7.6c-3.9-1.07-6.86-2.24-8.87-3.48-1.47-.88-3.21-2.25-5.22-4.12-3.03,2.49-5.39,4.16-7.09,5.01-1.5,.79-3.89,1.66-7.18,2.59Zm4.59-48.25h6.54l-.13,12.57c-.03,4.47,1.03,9.53,3.18,15.16,1.98-4.36,2.97-8.47,2.97-12.32v-26.5h-6.63c-1.13,4.16-2.33,7.05-3.61,8.66-.51,.68-1.29,1.49-2.34,2.42Z"/>
    <path class="cls-2" d="M200.25,355.18v-7.86h40.47l20.94-17.5c1.19-.99,1.78-1.87,1.78-2.63,0-.45-.15-.88-.47-1.27-.65-.82-1.71-1.23-3.19-1.23h-55.55v-7.86h57.93c3.54,0,6.24,.67,8.11,2,2.32,1.64,3.48,3.92,3.48,6.84,0,2.52-1.02,4.88-3.06,7.09-1.19,1.27-2.75,2.7-4.68,4.29l-12.7,10.28h25.65v7.86h-28.92l.04,21.15c0,3.85-1.19,6.98-3.57,9.38-2.21,2.27-5.51,3.4-9.9,3.4h-16.44v-7.9h15.25c2.41,.03,4.05-.47,4.93-1.49,.79-.93,1.19-2.35,1.19-4.25v-20.34l-41.32,.04Z"/>
    <path class="cls-2" d="M291.87,350.17v-10.11c2.95-2.1,5.09-4.21,6.42-6.33,2.83-4.5,4.87-10.11,6.11-16.82h8.92c-1.22,6.14-2.9,11.72-5.06,16.73v55.38h-8.15v-44.08c-1.98,1.59-3.28,2.56-3.91,2.93-.59,.4-2.04,1.16-4.33,2.29Zm20.64-8.62v-7.98h19.11l-4.97-16.78h8.54l4.71,16.78h30.07v7.98h-27.82l5.01,18.47c.99,3.65,2.27,7.15,3.82,10.49,1.45,3.09,3.6,5.59,6.46,7.52,3.23,2.18,6.57,3.27,10.02,3.27,.45,0,1.15-.04,2.08-.13v7.94c-4.62-.08-8.38-.67-11.3-1.74-5.41-2.04-9.54-5.55-12.4-10.53-1.84-3.17-3.65-7.77-5.43-13.8l-6.42-21.49h-21.49Zm40.26-16.48v-7.86h17.2v7.86h-17.2Z"/>
    <path class="cls-2" d="M383.2,386.78v-7.86h6.92v-24.5l-6.96,.04,.04-7.73h6.92v-20.05h-6.92v-7.86h22v7.86h-7.22v20.05h7.22v7.69h-7.22v24.5h7.22v7.86h-22Zm26.12,2.17v-7.86h22.51v-9.09h-20.39v-7.86h20.39v-6.92l-13.76-.04c-2.44,0-4.36-.86-5.77-2.59-.88-1.1-1.39-2.26-1.53-3.48-.09-.71-.13-1.67-.13-2.89v-23.02c0-2.86,.72-5.01,2.16-6.46,1.36-1.36,3.19-2.04,5.48-2.04h32.66c3.45,0,5.93,.71,7.43,2.12,1.3,1.25,1.95,3.12,1.95,5.61v25.01c0,2.38-.69,4.28-2.08,5.69-1.33,1.36-3,2.04-5.01,2.04l-13.55,.04v6.92h20.43v7.86h-20.43v9.09h22v7.86h-52.37Zm9.17-55.98h13.34v-8.41h-10.07c-1.19,0-2.07,.28-2.63,.85-.42,.42-.64,1.23-.64,2.42v5.14Zm13.34,16.27v-8.45h-13.34v4.63c0,1.53,.23,2.55,.68,3.06,.42,.51,1.22,.76,2.38,.76h10.28Zm7.86-16.27h12.96v-5.14c.03-2.24-1.39-3.36-4.25-3.36l-8.71,.09v8.41Zm0,16.27h9.47c1.39,0,2.31-.25,2.76-.76,.51-.57,.75-1.51,.72-2.85v-4.84h-12.96v8.45Z"/>
  </g>
  <g>
    <path class="cls-4" d="M26.71,413.56l15.62,22.47h.12v-22.47h3.17v27.61h-3.25l-15.7-22.7h-.12v22.7h-3.17v-27.61h3.33Z"/>
    <path class="cls-4" d="M79.47,423.88c1.47,1.93,2.24,4.68,2.32,8.16h-15.78c.15,2.24,.73,3.98,1.82,5.22,1.08,1.24,2.59,1.86,4.48,1.86,1.62,0,2.98-.42,3.98-1.24,.85-.7,1.51-1.74,2.01-3.13h3.09c-.46,1.93-1.35,3.48-2.71,4.72-1.66,1.47-3.79,2.24-6.38,2.24-2.86,0-5.18-.97-6.88-2.82-1.78-1.93-2.63-4.49-2.63-7.73,0-2.94,.81-5.41,2.51-7.39,1.7-2.09,3.98-3.13,6.88-3.13,3.21,0,5.65,1.08,7.27,3.25Zm-11.49,1.08c-1.08,1.16-1.7,2.71-1.89,4.68h12.49c-.39-4.29-2.51-6.42-6.3-6.42-1.78,0-3.21,.58-4.29,1.74Z"/>
    <path class="cls-4" d="M101.67,421.18v12.22c0,1.89,.39,3.32,1.2,4.25s2.13,1.43,3.95,1.43c1.32,0,2.51-.54,3.56-1.55,1.08-1.08,1.74-2.47,1.97-4.18v-12.18h3.09v19.99h-3.09v-3.1c-1.62,2.4-3.79,3.64-6.49,3.64-4.87,0-7.27-2.75-7.27-8.16v-12.37h3.09Z"/>
    <path class="cls-4" d="M138.73,421.18h4.95v2.59h-4.95v12.72c0,.73,.11,1.28,.42,1.58,.27,.31,.77,.5,1.47,.5h2.55v2.59h-3.02c-1.62,0-2.82-.43-3.52-1.28-.66-.77-.97-1.9-.97-3.4v-12.72h-4.02v-2.59h4.02v-5.18l3.06-1.28v6.46Z"/>
    <path class="cls-4" d="M171.79,421.1v3.09c-1.01-.31-2.01-.42-2.98-.42-1.55,0-2.86,.66-3.91,2.05-1.08,1.32-1.58,2.9-1.58,4.76v10.6h-3.06v-19.99h3.06v3.48c.54-1.16,1.24-2.09,2.09-2.75,1.04-.85,2.24-1.28,3.63-1.28,1.08,0,2.01,.15,2.75,.46Z"/>
    <path class="cls-4" d="M191.76,414.29c.46,.39,.7,.93,.7,1.62,0,.66-.23,1.2-.7,1.66-.47,.42-1.01,.66-1.66,.66s-1.2-.23-1.66-.66c-.47-.46-.66-1.01-.66-1.66,0-.7,.19-1.24,.66-1.62,.46-.46,1-.66,1.66-.66s1.2,.19,1.66,.66Zm-.12,6.88v19.99h-3.09v-19.99h3.09Z"/>
    <path class="cls-4" d="M227.41,428.87v12.3h-3.09v-12.07c0-3.9-1.78-5.84-5.26-5.84-1.39,0-2.59,.5-3.6,1.51-1.08,1.08-1.66,2.51-1.78,4.33v12.07h-3.09v-19.99h3.09v2.94c.7-1.12,1.59-1.97,2.67-2.55,1.08-.62,2.28-.93,3.6-.93,4.95,0,7.46,2.75,7.46,8.24Z"/>
    <path class="cls-4" d="M261.45,423.73c1.7,1.97,2.55,4.45,2.55,7.46s-.85,5.45-2.51,7.39c-1.82,2.09-4.21,3.13-7.19,3.13s-5.37-1.04-7.15-3.13c-1.7-1.93-2.55-4.41-2.55-7.39s.85-5.49,2.55-7.46c1.78-2.09,4.14-3.09,7.15-3.09s5.38,1.01,7.16,3.09Zm-12.11,1.93c-1.08,1.47-1.58,3.29-1.58,5.53s.5,4.02,1.58,5.49c1.16,1.62,2.83,2.44,4.95,2.44s3.75-.81,4.99-2.44c1.04-1.47,1.59-3.33,1.59-5.49s-.54-4.06-1.59-5.53c-1.24-1.62-2.9-2.44-4.99-2.44s-3.79,.81-4.95,2.44Z"/>
    <path class="cls-4" d="M318.89,413.56c6.34,0,9.52,2.71,9.52,8.12s-3.21,8.2-9.55,8.2h-8.08v11.29h-3.17v-27.61h11.29Zm-8.12,13.57h7.93c2.24,0,3.87-.46,4.95-1.35,1.04-.89,1.59-2.24,1.59-4.1s-.54-3.21-1.62-4.02c-1.08-.93-2.71-1.35-4.91-1.35h-7.93v10.83Z"/>
    <path class="cls-4" d="M356.72,421.1v3.09c-1-.31-2.01-.42-2.98-.42-1.55,0-2.86,.66-3.9,2.05-1.08,1.32-1.59,2.9-1.59,4.76v10.6h-3.06v-19.99h3.06v3.48c.54-1.16,1.24-2.09,2.09-2.75,1.04-.85,2.24-1.28,3.63-1.28,1.08,0,2.01,.15,2.74,.46Z"/>
    <path class="cls-4" d="M388.55,423.73c1.7,1.97,2.55,4.45,2.55,7.46s-.85,5.45-2.51,7.39c-1.82,2.09-4.21,3.13-7.19,3.13s-5.37-1.04-7.15-3.13c-1.7-1.93-2.55-4.41-2.55-7.39s.85-5.49,2.55-7.46c1.78-2.09,4.14-3.09,7.15-3.09s5.38,1.01,7.16,3.09Zm-12.11,1.93c-1.08,1.47-1.58,3.29-1.58,5.53s.5,4.02,1.58,5.49c1.16,1.62,2.83,2.44,4.95,2.44s3.75-.81,4.99-2.44c1.04-1.47,1.59-3.33,1.59-5.49s-.54-4.06-1.59-5.53c-1.24-1.62-2.9-2.44-4.99-2.44s-3.79,.81-4.95,2.44Z"/>
    <path class="cls-4" d="M410.56,421.18l5.18,7.11,5.14-7.11h3.64l-7.08,9.4,7.93,10.6h-3.68l-5.95-8.32-5.99,8.32h-3.67l7.93-10.6-7.08-9.4h3.63Z"/>
    <path class="cls-4" d="M442.28,421.18l6.11,15.78,5.92-15.78h3.41l-10.94,27.65h-3.36l3.44-8.12-7.93-19.53h3.36Z"/>
  </g>
</svg>