<svg xmlns="http://www.w3.org/2000/svg" viewBox="0 0 213.97 125.78"><defs><style>.cls-1{fill:#231815;}</style></defs><title>资源 6</title><g id="图层_2" data-name="图层 2"><g id="图层_1-2" data-name="图层 1"><path class="cls-1" d="M103.07,10C104.83,4.87,101.58-.51,95.14,0A11.77,11.77,0,0,0,90,1.83C58.43,21,59.5,62.37,90.42,82.43A10.38,10.38,0,0,0,95,84.08c7.4.71,12-6.51,7.31-12a10.5,10.5,0,0,0-2.89-2.23c-23.85-13.2-24.7-41.33-.38-55.2A8.85,8.85,0,0,0,103.07,10Z"/><path class="cls-1" d="M124.06,14.2l10.52,6.9a8.84,8.84,0,0,0,1,.56c7.18,3.31,13.75-3.74,9.77-9.95A8.46,8.46,0,0,0,143,9.36L131.66,1.8A8.44,8.44,0,0,0,125.37.4c-4.29.82-6.12,4.75-4.94,9A8.54,8.54,0,0,0,124.06,14.2Z"/><path class="cls-1" d="M132,51.62V62.88a4.06,4.06,0,0,1-2,3.5l-5.34,3.14a7.59,7.59,0,0,0-4.13,8.69c.77,2.74,3.12,5,7.16,5.25a7.37,7.37,0,0,0,2.75-.43,35.87,35.87,0,0,0,13.38-8.55,9.57,9.57,0,0,0,2.76-6.75V42.06h0a6.78,6.78,0,0,0-6.78-6.78H132"/><path class="cls-1" d="M124.17,37.57V48.93a2.3,2.3,0,0,1-2.29,2.29h-7.11a8.48,8.48,0,0,1-7.79-5,7.39,7.39,0,0,1-.33-5.41,8.39,8.39,0,0,1,8-5.57h7.18A2.3,2.3,0,0,1,124.17,37.57Z"/><path class="cls-1" d="M11.91,100.28A2.38,2.38,0,0,0,9.31,97a3.89,3.89,0,0,0-1.68.59c-10.37,6.28-10,19.87.13,26.45a3.4,3.4,0,0,0,1.5.54c2.43.24,3.94-2.14,2.4-3.93a3.26,3.26,0,0,0-.95-.73c-7.82-4.33-8.1-13.57-.12-18.12A2.87,2.87,0,0,0,11.91,100.28Z"/><path class="cls-1" d="M18.8,101.68l3.46,2.26a3.37,3.37,0,0,0,.32.19c2.36,1.08,4.51-1.23,3.21-3.27a2.86,2.86,0,0,0-.78-.77L21.3,97.61a2.78,2.78,0,0,0-2.07-.46,2.18,2.18,0,0,0-1.62,2.95A2.81,2.81,0,0,0,18.8,101.68Z"/><path class="cls-1" d="M39.24,98.82V123a2.3,2.3,0,0,0,0,.37c.37,2.57,3.48,3.12,4.48.91a2.44,2.44,0,0,0,.22-1.07L44,98.69a2.78,2.78,0,0,0-.74-2,2.19,2.19,0,0,0-3.36.25A2.86,2.86,0,0,0,39.24,98.82Z"/><path class="cls-1" d="M71.05,108.91,71,123c0,.12,0,.25,0,.37.38,2.57,3.49,3.12,4.49.91a2.6,2.6,0,0,0,.22-1.07l.06-14.47a2.81,2.81,0,0,0-.73-2,2.2,2.2,0,0,0-3.37.25A2.85,2.85,0,0,0,71.05,108.91Z"/><path class="cls-1" d="M126.44,95.88l-10.13,0a2.42,2.42,0,0,0-.38,0c-2.57.37-3.12,3.49-.91,4.49a2.86,2.86,0,0,0,1.08.22l10.46.06a2.76,2.76,0,0,0,2-.74,2.18,2.18,0,0,0-.25-3.36A2.75,2.75,0,0,0,126.44,95.88Z"/><path class="cls-1" d="M126.44,121l-10.13,0-.38,0c-2.57.38-3.12,3.49-.91,4.49a2.86,2.86,0,0,0,1.08.22l10.46.06a2.8,2.8,0,0,0,2-.73,2.19,2.19,0,0,0-.25-3.37A2.81,2.81,0,0,0,126.44,121Z"/><path class="cls-1" d="M172.85,98.18a2.86,2.86,0,0,1-.91,1.92l-12.34,12v10.86a2.81,2.81,0,0,1-.68,1.86,2.19,2.19,0,0,1-3.36.25,2.85,2.85,0,0,1-.74-2l0-6.36,0-6.61,4.76-4.62,8.91-8.68a2.82,2.82,0,0,1,1.8-.81A2.19,2.19,0,0,1,172.85,98.18Z"/><path class="cls-1" d="M121.44,108.44h-5.13a2.42,2.42,0,0,0-.38,0c-2.57.37-3.12,3.48-.91,4.48a2.68,2.68,0,0,0,1.08.22l5.46.07a2.76,2.76,0,0,0,2-.74,2.18,2.18,0,0,0-.25-3.36A2.81,2.81,0,0,0,121.44,108.44Z"/><path class="cls-1" d="M211.18,95.79H201.05a2.3,2.3,0,0,0-.37,0c-2.57.37-3.12,3.48-.92,4.48a2.68,2.68,0,0,0,1.08.22l10.46.07a2.85,2.85,0,0,0,2-.74,2.19,2.19,0,0,0-.25-3.36A2.86,2.86,0,0,0,211.18,95.79Z"/><path class="cls-1" d="M211.18,120.93l-10.13,0a2.3,2.3,0,0,0-.37,0c-2.57.37-3.12,3.49-.92,4.49a2.86,2.86,0,0,0,1.08.22l10.46.06a2.8,2.8,0,0,0,2-.74,2.19,2.19,0,0,0-.25-3.36A2.8,2.8,0,0,0,211.18,120.93Z"/><path class="cls-1" d="M206.18,108.36l-5.13,0-.37,0c-2.57.38-3.12,3.49-.92,4.49a2.86,2.86,0,0,0,1.08.22l5.46.06a2.84,2.84,0,0,0,2-.73A2.2,2.2,0,0,0,208,109,2.85,2.85,0,0,0,206.18,108.36Z"/><path class="cls-1" d="M151.22,100.83l-3.88-3.36a2.37,2.37,0,0,0-.3-.23c-2.19-1.39-4.63.62-3.61,2.81a2.48,2.48,0,0,0,.67.87l4.1,3.61a2.83,2.83,0,0,0,2,.73,2.18,2.18,0,0,0,2-2.71A2.8,2.8,0,0,0,151.22,100.83Z"/><path class="cls-1" d="M61.45,100.75l24.13-.24.38,0c2.56-.4,3.07-3.52.86-4.49a2.67,2.67,0,0,0-1.08-.21L61.28,96a2.82,2.82,0,0,0-2,.76,2.19,2.19,0,0,0,.29,3.36A2.78,2.78,0,0,0,61.45,100.75Z"/><path class="cls-1" d="M102.73,98.84,103,123a2.42,2.42,0,0,0,0,.38c.4,2.56,3.52,3.08,4.5.86a2.67,2.67,0,0,0,.21-1.08l-.21-24.46a2.76,2.76,0,0,0-.76-2,2.18,2.18,0,0,0-3.35.28A2.81,2.81,0,0,0,102.73,98.84Z"/><path class="cls-1" d="M187.27,98.84l.24,24.13a2.43,2.43,0,0,0,0,.38c.4,2.56,3.52,3.08,4.49.86a2.67,2.67,0,0,0,.21-1.08L192,98.67a2.8,2.8,0,0,0-.76-2,2.19,2.19,0,0,0-3.36.28A2.8,2.8,0,0,0,187.27,98.84Z"/><path class="cls-1" d="M26.18,110.82v8.42a3.13,3.13,0,0,1-.91,2.22,11.64,11.64,0,0,1-4.39,2.8,2.3,2.3,0,0,1-.9.15,2.4,2.4,0,0,1-2.35-1.73A2.49,2.49,0,0,1,19,119.83l1.75-1a1.33,1.33,0,0,0,.65-1.15V114a.23.23,0,0,0,0-.14h-5.6a.86.86,0,0,1-.23,0,2.76,2.76,0,0,1-2.33-1.6,2.43,2.43,0,0,1-.1-1.78,2.74,2.74,0,0,1,2.43-1.82h8.6a2.18,2.18,0,0,1,1.41.64A2.26,2.26,0,0,1,26.18,110.82Z"/><path class="cls-1" d="M15.73,108.59h0Z"/><path class="cls-1" d="M15.52,113.8a.86.86,0,0,0,.23,0h-.23Z"/><path class="cls-1" d="M24.12,108.59h0Z"/></g></g></svg>