<?xml version="1.0" encoding="UTF-8"?>
<svg id="_图层_1" data-name="图层 1" xmlns="http://www.w3.org/2000/svg" viewBox="0 0 800 240">
  <defs>
    <style>
      .cls-1 {
        fill: #ff9045;
      }

      .cls-2 {
        fill: #333;
      }

      .cls-3 {
        fill: #0079dd;
      }

      .cls-4 {
        fill: #595959;
      }
    </style>
  </defs>
  <g>
    <g>
      <circle class="cls-1" cx="145.28" cy="62.13" r="13.63"/>
      <path class="cls-1" d="M154.29,83.78h-18.09c-4.56,0-8.26,3.7-8.26,8.26v92.19c0,4.02,3.26,7.28,7.28,7.28h.07c4.02,0,7.28-3.26,7.28-7.28v-54.05c2.96,0,5.36,2.4,5.36,5.36v16.41c0,4.02,3.26,7.28,7.28,7.28h.07c4.02,0,7.28-3.26,7.28-7.28v-21.16s0-38.75,0-38.75c0-4.56-3.7-8.26-8.26-8.26Z"/>
    </g>
    <path class="cls-3" d="M117.19,125.56h-1.98c-3.07,0-5.56-2.49-5.56-5.56s2.49-5.56,5.56-5.56h1.98s.04,0,.06,0v-25.71c0-4.77-2.32-9.24-6.21-11.98L50.81,34.3c-4.86-3.42-11.55,.05-11.55,5.99V199.71c0,5.94,6.7,9.41,11.55,5.99l60.23-42.45c3.9-2.75,6.21-7.22,6.21-11.98v-25.71s-.04,0-.06,0Z"/>
    <path class="cls-3" d="M239.76,34.3l-60.23,42.45c-3.9,2.75-6.21,7.22-6.21,11.98v25.71s.04,0,.06,0h1.98c3.07,0,5.56,2.49,5.56,5.56s-2.49,5.56-5.56,5.56h-1.98s-.04,0-.06,0v25.71c0,4.77,2.32,9.24,6.21,11.98l60.23,42.45c4.86,3.42,11.55-.05,11.55-5.99V40.29c0-5.94-6.7-9.41-11.55-5.99Z"/>
  </g>
  <g>
    <g>
      <path class="cls-2" d="M344.63,60.54v-7.61h8.13v7.61h20.8c4.41,0,7.8,.88,10.16,2.64,3.06,2.31,4.58,5.45,4.58,9.43l-.04,32.47c0,3.86-.78,6.82-2.34,8.87-2.42,3.2-6.01,4.8-10.77,4.8h-22.4l.04,7.52-8.17-.04v-7.48h-20.54c-4.15,0-7.24-.59-9.25-1.77-3.66-2.13-5.49-6.18-5.49-12.15v-30.57c0-4.44,1.12-7.77,3.37-9.99,2.51-2.48,5.89-3.72,10.16-3.72h21.75Zm0,50.07v-41.94h-22.01c-2.05,0-3.47,.55-4.28,1.64-.58,.81-.87,2.08-.87,3.8v30.05c0,1.96,.07,3.13,.22,3.5,.72,1.99,2.31,2.98,4.76,2.98l22.18-.04Zm8.13,0l20.93,.04c4.32,.03,6.49-1.79,6.49-5.45v-30.48c0-2.48-.49-4.11-1.47-4.89-.92-.72-2.48-1.1-4.67-1.12l-21.27-.09v41.99Z"/>
      <path class="cls-2" d="M401.72,75.41v-8.78c2.13-1.73,3.62-3.34,4.45-4.84,1.12-1.93,2-4.94,2.64-9.04h8.13c-.46,2.19-.79,3.84-.99,4.93-.81,4.12-2.12,7.46-3.93,10.03-1.87,2.62-4.08,4.64-6.62,6.05-.81,.43-2.03,.98-3.67,1.64Zm0,20.67v-8.86c2.36-1.9,3.91-3.56,4.63-4.97,.89-1.67,1.7-4.63,2.42-8.86h8.17l-.91,4.15v48.86h-8.09v-33.77c-1.93,1.44-4.01,2.59-6.23,3.46Zm17.25,30.31v-8.47c1.35-.78,2.03-1.9,2.03-3.37v-10.59c0-2.6,.88-4.79,2.64-6.57,1.59-1.58,4.53-2.38,8.82-2.38h6.87c6.72,0,10.08,3.19,10.08,9.56v8.86c0,1.73,.23,2.87,.69,3.42,.26,.32,.72,.68,1.38,1.08v8.47c-2.88-.43-5.16-1.3-6.83-2.59-.87-.66-1.59-1.56-2.16-2.68-.81-1.53-1.21-3.07-1.21-4.63v-9.95c0-2.39-1.47-3.59-4.41-3.59h-3.5c-1.47,0-2.51,.32-3.11,.95-.81,.81-1.21,2.05-1.21,3.72v8.87c0,2.79-.88,5.07-2.64,6.83-1.39,1.41-3.86,2.44-7.44,3.07Zm.91-73.68h7.22v15.52c0,1.21,.23,2.02,.69,2.42,.52,.43,1.41,.65,2.68,.65h1.08v-18.59h7.74v18.59h1.12c1.07,0,1.84-.29,2.34-.86s.74-1.17,.74-1.77v-15.96h7.05v17.99c0,3.08-1.11,5.35-3.33,6.79-1.21,.78-3.37,1.17-6.49,1.17h-11.68c-3.2,0-5.59-.81-7.18-2.42-.69-.72-1.14-1.37-1.34-1.95-.43-1.21-.65-3.01-.65-5.4v-16.17Zm0,38.18v-7.22h30.66v7.22h-30.66Zm33.12,35.11v-7.74c2.36-.92,4.08-1.72,5.15-2.38,1.1-.69,2.62-1.92,4.58-3.67-2.02-3.83-3.39-7.16-4.11-9.99-.89-3.34-1.34-6.76-1.34-10.25v-14.87c-1.12,.75-2.45,1.37-3.98,1.86v-8.39c1.38-1.53,2.35-3.56,2.9-6.1,.63-3.08,1.08-7,1.34-11.76h7.26v4.89h17.08v8h-4.2v27.46c0,6.05-1.83,12.44-5.49,19.16,1.44,1.38,2.61,2.41,3.5,3.07,1.27,.89,3.33,1.89,6.18,2.98v7.74c-3.98-1.1-6.99-2.28-9.04-3.55-1.5-.89-3.27-2.29-5.32-4.19-3.08,2.54-5.49,4.24-7.22,5.1-1.53,.81-3.96,1.69-7.31,2.64Zm4.67-49.12h6.66l-.13,12.8c-.03,4.56,1.05,9.7,3.24,15.44,2.02-4.44,3.03-8.62,3.03-12.54v-26.98h-6.74c-1.15,4.24-2.38,7.18-3.68,8.82-.52,.69-1.31,1.51-2.38,2.47Z"/>
      <path class="cls-2" d="M494.58,91.89v-8h41.21l21.32-17.81c1.21-1.01,1.82-1.9,1.82-2.68,0-.46-.16-.89-.47-1.3-.66-.83-1.75-1.25-3.24-1.25h-56.56v-8h58.98c3.6,0,6.36,.68,8.26,2.03,2.36,1.67,3.55,3.99,3.55,6.96,0,2.56-1.04,4.97-3.11,7.22-1.21,1.3-2.8,2.75-4.76,4.37l-12.93,10.46h26.12v8h-29.45l.04,21.53c0,3.92-1.21,7.1-3.63,9.56-2.25,2.31-5.61,3.46-10.07,3.46h-16.73v-8.04h15.52c2.45,.03,4.12-.47,5.01-1.51,.81-.95,1.21-2.39,1.21-4.33v-20.71l-42.07,.04Z"/>
      <path class="cls-2" d="M587.86,86.78v-10.29c3-2.13,5.17-4.28,6.53-6.44,2.88-4.58,4.96-10.29,6.23-17.12h9.08c-1.24,6.26-2.96,11.93-5.15,17.04v56.38h-8.3v-44.88c-2.02,1.62-3.34,2.61-3.98,2.98-.61,.4-2.08,1.18-4.41,2.34Zm21.02-8.78v-8.13h19.46l-5.06-17.08h8.69l4.8,17.08h30.61v8.13h-28.32l5.1,18.81c1.01,3.72,2.31,7.28,3.89,10.68,1.47,3.14,3.66,5.69,6.57,7.65,3.29,2.22,6.69,3.33,10.2,3.33,.46,0,1.17-.04,2.12-.13v8.09c-4.7-.09-8.53-.68-11.5-1.77-5.51-2.07-9.71-5.65-12.63-10.72-1.87-3.23-3.72-7.91-5.53-14.05l-6.53-21.88h-21.88Zm40.99-16.78v-8h17.51v8h-17.51Z"/>
      <path class="cls-2" d="M680.84,124.06v-8h7.05v-24.95l-7.09,.04,.04-7.87h7.05v-20.41h-7.05v-8h22.4v8h-7.35v20.41h7.35v7.83h-7.35v24.95h7.35v8h-22.4Zm26.59,2.2v-8h22.92v-9.25h-20.76v-8h20.76v-7.05l-14.01-.04c-2.48,0-4.44-.88-5.88-2.64-.89-1.12-1.41-2.31-1.56-3.55-.09-.72-.13-1.7-.13-2.94v-23.44c0-2.91,.74-5.1,2.2-6.57,1.38-1.38,3.24-2.08,5.58-2.08h33.25c3.52,0,6.04,.72,7.57,2.16,1.33,1.27,1.99,3.17,1.99,5.71v25.47c0,2.42-.71,4.35-2.12,5.79-1.35,1.38-3.06,2.07-5.1,2.07l-13.79,.04v7.05h20.8v8h-20.8v9.25h22.4v8h-53.31Zm9.34-56.99h13.58v-8.56h-10.25c-1.21,0-2.11,.29-2.68,.86-.43,.43-.65,1.25-.65,2.47v5.23Zm13.58,16.56v-8.6h-13.58v4.71c0,1.56,.23,2.6,.69,3.11,.43,.52,1.24,.78,2.42,.78h10.46Zm8-16.56h13.19v-5.23c.03-2.28-1.41-3.42-4.32-3.42l-8.86,.09v8.56Zm0,16.56h9.64c1.41,0,2.35-.26,2.81-.78,.52-.58,.76-1.54,.74-2.9v-4.93h-13.19v8.6Z"/>
    </g>
    <g>
      <path class="cls-4" d="M315.77,154.13l16.1,23.16h.12v-23.16h3.27v28.46h-3.35l-16.18-23.4h-.12v23.4h-3.27v-28.46h3.43Z"/>
      <path class="cls-4" d="M370.12,164.77c1.51,1.99,2.31,4.82,2.39,8.41h-16.26c.16,2.31,.76,4.11,1.87,5.38,1.12,1.28,2.67,1.91,4.63,1.91,1.67,0,3.07-.44,4.1-1.28,.88-.72,1.56-1.79,2.07-3.23h3.19c-.48,1.99-1.39,3.59-2.79,4.86-1.71,1.52-3.91,2.31-6.58,2.31-2.95,0-5.34-1-7.1-2.91-1.83-1.99-2.71-4.62-2.71-7.97,0-3.03,.84-5.58,2.59-7.61,1.75-2.15,4.11-3.23,7.1-3.23,3.31,0,5.82,1.12,7.49,3.35Zm-11.84,1.12c-1.12,1.2-1.76,2.79-1.95,4.82h12.88c-.4-4.42-2.59-6.62-6.5-6.62-1.83,0-3.31,.6-4.42,1.79Z"/>
      <path class="cls-4" d="M392.99,161.98v12.6c0,1.95,.4,3.43,1.24,4.38,.84,.96,2.19,1.48,4.07,1.48,1.35,0,2.59-.56,3.67-1.59,1.12-1.12,1.79-2.55,2.03-4.3v-12.56h3.19v20.61h-3.19v-3.19c-1.68,2.47-3.91,3.75-6.7,3.75-5.02,0-7.5-2.83-7.5-8.41v-12.76h3.19Z"/>
      <path class="cls-4" d="M431.17,161.98h5.1v2.67h-5.1v13.11c0,.76,.12,1.31,.44,1.63,.28,.32,.8,.52,1.51,.52h2.63v2.67h-3.11c-1.67,0-2.91-.44-3.63-1.31-.68-.8-1-1.95-1-3.51v-13.11h-4.15v-2.67h4.15v-5.34l3.15-1.31v6.66Z"/>
      <path class="cls-4" d="M465.24,161.9v3.19c-1.04-.32-2.07-.44-3.07-.44-1.59,0-2.95,.68-4.03,2.11-1.12,1.35-1.64,2.99-1.64,4.9v10.92h-3.15v-20.61h3.15v3.59c.56-1.19,1.28-2.15,2.15-2.83,1.08-.88,2.31-1.32,3.75-1.32,1.12,0,2.07,.16,2.83,.48Z"/>
      <path class="cls-4" d="M485.8,154.88c.48,.4,.72,.96,.72,1.68,0,.68-.24,1.24-.72,1.71-.48,.44-1.04,.68-1.71,.68s-1.24-.24-1.71-.68c-.48-.48-.68-1.04-.68-1.71,0-.72,.2-1.28,.68-1.68,.48-.48,1.04-.68,1.71-.68s1.24,.2,1.71,.68Zm-.12,7.1v20.61h-3.19v-20.61h3.19Z"/>
      <path class="cls-4" d="M522.54,169.91v12.67h-3.19v-12.44c0-4.03-1.83-6.02-5.42-6.02-1.43,0-2.67,.52-3.71,1.56-1.12,1.12-1.71,2.59-1.83,4.46v12.44h-3.19v-20.61h3.19v3.03c.72-1.16,1.64-2.03,2.75-2.63,1.12-.64,2.35-.96,3.71-.96,5.1,0,7.69,2.83,7.69,8.49Z"/>
      <path class="cls-4" d="M557.61,164.61c1.75,2.03,2.63,4.58,2.63,7.69s-.88,5.62-2.59,7.61c-1.87,2.15-4.35,3.23-7.41,3.23s-5.54-1.08-7.37-3.23c-1.75-1.99-2.63-4.54-2.63-7.61s.88-5.66,2.63-7.69c1.83-2.15,4.27-3.19,7.37-3.19s5.54,1.04,7.38,3.19Zm-12.48,1.99c-1.12,1.51-1.63,3.39-1.63,5.7s.52,4.15,1.63,5.66c1.2,1.68,2.91,2.51,5.1,2.51s3.87-.84,5.14-2.51c1.07-1.51,1.63-3.43,1.63-5.66s-.56-4.19-1.63-5.7c-1.28-1.68-2.99-2.51-5.14-2.51s-3.91,.84-5.1,2.51Z"/>
      <path class="cls-4" d="M616.79,154.13c6.54,0,9.8,2.79,9.8,8.37s-3.31,8.45-9.84,8.45h-8.33v11.64h-3.27v-28.46h11.64Zm-8.37,13.99h8.17c2.31,0,3.99-.48,5.1-1.39,1.07-.92,1.63-2.31,1.63-4.23s-.56-3.31-1.67-4.15c-1.12-.96-2.79-1.4-5.06-1.4h-8.17v11.16Z"/>
      <path class="cls-4" d="M655.76,161.9v3.19c-1.04-.32-2.07-.44-3.07-.44-1.59,0-2.95,.68-4.03,2.11-1.11,1.35-1.63,2.99-1.63,4.9v10.92h-3.15v-20.61h3.15v3.59c.56-1.19,1.28-2.15,2.15-2.83,1.07-.88,2.31-1.32,3.75-1.32,1.12,0,2.07,.16,2.83,.48Z"/>
      <path class="cls-4" d="M688.55,164.61c1.76,2.03,2.63,4.58,2.63,7.69s-.88,5.62-2.59,7.61c-1.87,2.15-4.34,3.23-7.41,3.23s-5.54-1.08-7.37-3.23c-1.75-1.99-2.63-4.54-2.63-7.61s.88-5.66,2.63-7.69c1.83-2.15,4.27-3.19,7.37-3.19s5.54,1.04,7.37,3.19Zm-12.48,1.99c-1.12,1.51-1.63,3.39-1.63,5.7s.52,4.15,1.63,5.66c1.2,1.68,2.91,2.51,5.1,2.51s3.87-.84,5.14-2.51c1.08-1.51,1.64-3.43,1.64-5.66s-.56-4.19-1.64-5.7c-1.28-1.68-2.99-2.51-5.14-2.51s-3.91,.84-5.1,2.51Z"/>
      <path class="cls-4" d="M711.23,161.98l5.34,7.33,5.3-7.33h3.75l-7.29,9.69,8.17,10.92h-3.79l-6.14-8.57-6.18,8.57h-3.79l8.17-10.92-7.29-9.69h3.75Z"/>
      <path class="cls-4" d="M743.9,161.98l6.3,16.26,6.1-16.26h3.51l-11.28,28.5h-3.47l3.55-8.37-8.17-20.13h3.47Z"/>
    </g>
  </g>
</svg>